<svg viewBox="0 -64 512.001 512" xmlns="http://www.w3.org/2000/svg"><path d="m113.574219 190.636719c-3.894531-1.414063-8.195313.589843-9.609375 4.480469l-4.832032 13.269531c-1.414062 3.894531.589844 8.195312 4.484376 9.613281.847656.308594 1.710937.453125 2.5625.453125 3.0625 0 5.941406-1.890625 7.050781-4.9375l4.828125-13.265625c1.417968-3.890625-.589844-8.195312-4.484375-9.613281zm196.199219-3.351563v69.449219c0 4.140625 3.355468 7.5 7.5 7.5 4.140624 0 7.5-3.359375 7.5-7.5v-69.449219c0-4.144531-3.359376-7.5-7.5-7.5-4.144532 0-7.5 3.355469-7.5 7.5zm-160.460938 2.472656c-4.144531 0-7.5 3.359376-7.5 7.5v14.121094c0 4.140625 3.355469 7.5 7.5 7.5 4.140625 0 7.5-3.359375 7.5-7.5v-14.121094c0-4.140624-3.359375-7.5-7.5-7.5zm104.464844 124.605469c0-3.984375-3.230469-7.214843-7.214844-7.214843s-7.214844 3.230468-7.214844 7.214843 3.230469 7.214844 7.214844 7.214844 7.214844-3.230469 7.214844-7.214844zm-73.953125 9.253907c0-3.984376-3.230469-7.214844-7.214844-7.214844s-7.214844 3.230468-7.214844 7.214844c0 3.984374 3.230469 7.214843 7.214844 7.214843s7.214844-3.230469 7.214844-7.214843zm260.542969-2.039063c0-3.984375-3.230469-7.214844-7.214844-7.214844s-7.214844 3.230469-7.214844 7.214844c0 3.980469 3.230469 7.210937 7.214844 7.210937s7.214844-3.230468 7.214844-7.210937zm-93.574219-14.429687c0-3.984376-3.230469-7.214844-7.214844-7.214844s-7.214844 3.230468-7.214844 7.214844c0 3.984374 3.230469 7.214843 7.214844 7.214843s7.214844-3.230469 7.214844-7.214843zm-229.222657-9.082032c0-3.984375-3.226562-7.214844-7.210937-7.214844s-7.214844 3.230469-7.214844 7.214844c0 3.980469 3.230469 7.210938 7.214844 7.210938s7.210937-3.230469 7.210937-7.210938zm77.089844-102.945312c-1.417968-3.894532-5.71875-5.902344-9.613281-4.484375-3.890625 1.417969-5.898437 5.722656-4.480469 9.613281l4.828125 13.265625c1.109375 3.046875 3.984375 4.9375 7.046875 4.9375.855469 0 1.71875-.144531 2.566406-.453125 3.890626-1.417969 5.898438-5.71875 4.480469-9.613281zm298.449219-195.121094h-43.941406c-4.140625 0-7.5 3.359375-7.5 7.5 0 4.144531 3.359375 7.5 7.5 7.5h43.941406c2.148437 0 3.890625 1.746094 3.890625 3.890625v33.175781c0 2.144532-1.742188 3.890625-3.890625 3.890625h-474.222656c-2.144531 0-3.886719-1.746093-3.886719-3.890625v-33.175781c0-2.144531 1.742188-3.890625 3.886719-3.890625h395.957031c4.140625 0 7.5-3.355469 7.5-7.5 0-4.140625-3.359375-7.5-7.5-7.5h-395.957031c-10.414063 0-18.886719 8.472656-18.886719 18.890625v33.175781c0 10.414063 8.472656 18.890625 18.886719 18.890625h.414062v216 .042969 33.390625c0 2.953125.390625 5.886719 1.171875 8.71875.914063 3.328125 3.933594 5.515625 7.226563 5.515625.65625 0 1.324219-.089844 1.988281-.273438 3.996094-1.097656 6.34375-5.222656 5.246094-9.21875-.421875-1.535156-.636719-3.128906-.636719-4.742187v-27.351563c48.734375-9.605468 100.785156-9.703124 168.972656-5.421874.015625.003906.035157.003906.054688.003906 9.730469.613281 19.78125 1.308594 30.203125 2.085937 38.828125 2.886719 76.4375 3.953125 111 3.792969.109375.007812.214844.015625.324218.015625.117188 0 .230469-.011719.34375-.015625 20.453126-.105469 39.824219-.636719 57.738282-1.476562.085937.003906.175781.023437.261718.023437.351563 0 .703126-.035156 1.050782-.082031 28.871094-1.382813 53.890625-3.558594 73.453125-6.011719v34.4375c0 9.828125-7.996094 17.820313-17.820313 17.820313h-403.535156c-4.144531 0-7.5 3.359374-7.5 7.5 0 4.144531 3.355469 7.5 7.5 7.5h16.402344v13.015624c0 9.40625 7.652344 17.0625 17.0625 17.0625h30.148437c9.40625 0 17.0625-7.652343 17.0625-17.0625v-13.015624h237.964844v13.015624c0 9.40625 7.652344 17.0625 17.0625 17.0625h30.148437c9.40625 0 17.058594-7.652343 17.058594-17.0625v-13.015624h20.625c18.097656 0 32.820313-14.722657 32.820313-32.820313v-249.433594h.414062c10.414063 0 18.886719-8.476562 18.886719-18.890625v-33.175781c0-10.417969-8.472656-18.890625-18.890625-18.890625zm-371.09375 366.226562c0 1.136719-.921875 2.0625-2.058594 2.0625h-30.148437c-1.136719 0-2.0625-.925781-2.0625-2.0625v-13.015624h34.269531zm302.238281 0c0 1.136719-.925781 2.0625-2.0625 2.0625h-30.144531c-1.136719 0-2.0625-.925781-2.0625-2.0625v-13.015624h34.269531zm-315.261718-225.574218c3.535156-19.046875 20.265624-33.519532 40.320312-33.519532s36.785156 14.472657 40.320312 33.519532zm93.199218 15c1.367188 0 2.476563 1.109375 2.476563 2.476562v7.851563c0 1.363281-1.109375 2.476562-2.476563 2.476562h-105.761718c-1.363282 0-2.472657-1.109375-2.472657-2.476562v-7.851563c0-1.367187 1.109375-2.476562 2.472657-2.476562zm-123.367187 116.167968c4.671875-10.148437 14.738281-17.4375 26.261719-18.121093 7.453124-.4375 14.800781 1.796875 20.683593 6.304687 7.378907 5.65625 17.296875 6.355469 25.273438 1.789063 5.109375-2.929688 10.953125-4.324219 16.902343-4.03125 10.085938.496093 19.089844 5.972656 24.402344 14.179687-42.960937-2.429687-79.660156-2.921875-113.523437-.121094zm262.472656 6.699219c-15.625.035157-31.867187-.183593-48.558594-.710937-7.277343-10.207032-11.121093-26.289063-11.121093-46.835938 0-44.46875 19.988281-80.070312 31.902343-97.335937 1.21875-1.765625 3.027344-1.957031 3.75-1.957031.722657 0 2.535157.191406 3.753907 1.957031 11.914062 17.265625 31.902343 52.867187 31.902343 97.335937 0 21.058594-4.015625 37.386719-11.628906 47.546875zm58.152344-1.34375c-12.832031.574219-26.402344.988281-40.574219 1.195313 2.320312-4.707032 4.210938-9.949219 5.640625-15.75.601563 2.300781 2.285156 4.277344 4.6875 5.152344.847656.308593 1.710937.453124 2.566406.453124 3.0625 0 5.9375-1.890624 7.046875-4.933593l23.753906-65.265625c1.417969-3.890625-.589843-8.195313-4.480468-9.613282-3.898438-1.414062-8.199219.59375-9.613282 4.484376l-22.222656 61.058593c1.109375-7.007812 1.671875-14.671875 1.671875-22.984375 0-13.832031-1.761719-26.851562-4.574219-38.839844 15.175782-23.089843 33.804688-38.996093 46.992188-48.363281 1.75-1.242187 3.519531-.804687 4.195312-.558593.679688.25 2.316407 1.046874 2.855469 3.125 5.292969 20.296874 11.898438 60.585937-3.3125 102.375-4.199219 11.539062-9.113281 21.09375-14.632812 28.464843zm78.25-6.34375c-16.226563 2.089844-36.472657 3.992188-59.738281 5.382813 3.765624-6.558594 7.183593-14.035156 10.21875-22.371094 16.597656-45.609375 9.460937-89.304688 3.730468-111.289062-1.621094-6.214844-6.195312-11.234376-12.242187-13.4375-6.042969-2.199219-12.777344-1.292969-18.011719 2.425781-12.226562 8.683593-28.796875 22.585937-43.648438 42.167969-7.382812-21.300782-17.390624-38.089844-24.640624-48.59375-3.644532-5.285157-9.664063-8.4375-16.097657-8.4375-6.433593 0-12.449219 3.15625-16.097656 8.4375-12.902344 18.699218-34.554687 57.320312-34.554687 105.855468 0 18.707032 2.851562 34.148438 8.46875 46.164063-13.273438-.589844-26.78125-1.375-40.445313-2.390625-8.605469-.640625-16.957031-1.226563-25.09375-1.757813-6.277344-17.160156-22.363281-29.300781-40.867187-30.207031-8.816407-.425781-17.492188 1.640625-25.09375 5.992188-2.714844 1.554687-6.128907 1.289062-8.695313-.675782-8.742187-6.703125-19.644531-10.027344-30.695313-9.375-19.960937 1.183594-36.976562 15.703125-41.789062 34.742188-9.527344 1.128906-18.875 2.554687-28.109375 4.300781v-206.808594h107.511719v21.695313c-24.96875 3.355468-44.769532 23.21875-48.03125 48.222656-8.378906 1.285156-14.824219 8.519531-14.824219 17.253906v7.851563c0 9.636719 7.839844 17.476562 17.476563 17.476562h105.761718c9.632813 0 17.472656-7.839843 17.472656-17.476562v-7.851563c0-8.734375-6.445312-15.96875-14.824218-17.253906-3.261719-25.003906-23.058594-44.867188-48.03125-48.222656v-21.695313h320.890625zm0 0"/></svg>